<svg xmlns="http://www.w3.org/2000/svg" width="20" height="18" viewBox="0 0 20 18">
  <g id="Group_632" data-name="Group 632" transform="translate(-2 -3)">
    <path id="Path_3295" data-name="Path 3295" d="M3,9A2,2,0,0,1,5,7h.93a2,2,0,0,0,1.664-.89l.812-1.22A2,2,0,0,1,10.07,4h3.86a2,2,0,0,1,1.664.89l.812,1.22A2,2,0,0,0,18.07,7H19a2,2,0,0,1,2,2v9a2,2,0,0,1-2,2H5a2,2,0,0,1-2-2Z" fill="none" stroke="#fff" stroke-linecap="round" stroke-linejoin="round" stroke-width="2"/>
    <path id="Path_3296" data-name="Path 3296" d="M15,13a3,3,0,1,1-3-3A3,3,0,0,1,15,13Z" fill="none" stroke="#fff" stroke-linecap="round" stroke-linejoin="round" stroke-width="2"/>
  </g>
</svg>
