<svg width="291" height="291" viewBox="0 0 291 291" fill="none" xmlns="http://www.w3.org/2000/svg">
<path d="M189.517 26.3765C189.517 26.3765 144.947 10.5228 101.198 35.7583C57.4492 60.9938 35.3682 111.081 16.4124 151.204C-2.5433 191.327 8.36338 232.137 41.7644 250.726C75.1653 269.315 97.875 241.903 144.726 240.57C191.577 239.237 204.177 245.93 243.084 219.467C281.991 193.003 288.986 130.49 258.321 84.2389C227.655 37.9874 189.517 26.3765 189.517 26.3765Z" fill="#92E3A9"/>
<path opacity="0.8" d="M189.517 26.3765C189.517 26.3765 144.947 10.5228 101.198 35.7583C57.4492 60.9938 35.3682 111.081 16.4124 151.204C-2.5433 191.327 8.36338 232.137 41.7644 250.726C75.1653 269.315 97.875 241.903 144.726 240.57C191.577 239.237 204.177 245.93 243.084 219.467C281.991 193.003 288.986 130.49 258.321 84.2389C227.655 37.9874 189.517 26.3765 189.517 26.3765Z" fill="white"/>
<path d="M10.3188 266.795H280.367" stroke="#263238" stroke-linecap="round" stroke-linejoin="round"/>
<path d="M214.409 20.0605H161.214V219.983H214.409V20.0605Z" stroke="#263238" stroke-linecap="round" stroke-linejoin="round"/>
<path d="M281.979 20.0613H159.864C159.649 20.0613 159.443 19.9761 159.292 19.8244C159.14 19.6727 159.055 19.4669 159.055 19.2523C159.055 19.0378 159.14 18.832 159.292 18.6803C159.443 18.5286 159.649 18.4434 159.864 18.4434H281.979C282.194 18.4434 282.4 18.5284 282.553 18.6799C282.706 18.8315 282.792 19.0373 282.794 19.2523C282.792 19.4674 282.706 19.6732 282.553 19.8247C282.4 19.9763 282.194 20.0613 281.979 20.0613V20.0613Z" fill="#263238" stroke="#263238" stroke-linecap="round" stroke-linejoin="round"/>
<path d="M214.327 170.816H279.534" stroke="#263238" stroke-linecap="round" stroke-linejoin="round"/>
<path d="M214.327 166.936H279.534" stroke="#263238" stroke-linecap="round" stroke-linejoin="round"/>
<path d="M214.327 91.6641H279.534" stroke="#263238" stroke-linecap="round" stroke-linejoin="round"/>
<path d="M214.327 95.082H279.534" stroke="#263238" stroke-linecap="round" stroke-linejoin="round"/>
<path d="M165.073 20.3574V35.7106" stroke="#263238" stroke-linecap="round" stroke-linejoin="round"/>
<path d="M167.563 22.6328V121.718" stroke="#263238" stroke-linecap="round" stroke-linejoin="round"/>
<path d="M173.605 20.1719V32.1087" stroke="#263238" stroke-linecap="round" stroke-linejoin="round"/>
<path d="M173.605 34.9492V41.584" stroke="#263238" stroke-linecap="round" stroke-linejoin="round"/>
<path d="M208.961 37.6035V40.4495" stroke="#263238" stroke-linecap="round" stroke-linejoin="round"/>
<path d="M208.961 20.3574V34.9482" stroke="#263238" stroke-linecap="round" stroke-linejoin="round"/>
<path d="M180.176 52.1934V54.469" stroke="#263238" stroke-linecap="round" stroke-linejoin="round"/>
<path d="M180.176 22.8262V49.54" stroke="#263238" stroke-linecap="round" stroke-linejoin="round"/>
<path d="M184.086 22.6328V30.9729" stroke="#263238" stroke-linecap="round" stroke-linejoin="round"/>
<path d="M204.34 22.6328V30.9729" stroke="#263238" stroke-linecap="round" stroke-linejoin="round"/>
<path d="M189.062 20.1719V91.4552" stroke="#263238" stroke-linecap="round" stroke-linejoin="round"/>
<path d="M195.633 20.5508V24.3396" stroke="#263238" stroke-linecap="round" stroke-linejoin="round"/>
<path d="M199.544 20.5508V71.0858" stroke="#263238" stroke-linecap="round" stroke-linejoin="round"/>
<path d="M193.503 23.582V34.1919" stroke="#263238" stroke-linecap="round" stroke-linejoin="round"/>
<path d="M226.922 81.2812L225.548 82.9923" stroke="#263238" stroke-linecap="round" stroke-linejoin="round"/>
<path d="M255.667 46.9492L229.139 78.5169" stroke="#263238" stroke-linecap="round" stroke-linejoin="round"/>
<path d="M249.719 65.2422L239.522 77.3303" stroke="#263238" stroke-linecap="round" stroke-linejoin="round"/>
<path d="M226.922 156.553L225.548 158.27" stroke="#263238" stroke-linecap="round" stroke-linejoin="round"/>
<path d="M256.674 119.531L229.139 153.788" stroke="#263238" stroke-linecap="round" stroke-linejoin="round"/>
<path d="M249.719 140.518L239.522 152.6" stroke="#263238" stroke-linecap="round" stroke-linejoin="round"/>
<path d="M260.707 95.1094V165.898" stroke="#263238" stroke-linecap="round" stroke-linejoin="round"/>
<path d="M260.707 19.7305V91.526" stroke="#263238" stroke-linecap="round" stroke-linejoin="round"/>
<path d="M264.234 95.1973V165.899" stroke="#263238" stroke-linecap="round" stroke-linejoin="round"/>
<path d="M264.234 19.7305V91.4911" stroke="#263238" stroke-linecap="round" stroke-linejoin="round"/>
<path d="M140.332 78.0645H20.3176V81.0326H140.332V78.0645Z" stroke="#263238" stroke-linecap="round" stroke-linejoin="round"/>
<path d="M152.216 105.988H8.43896V108.956H152.216V105.988Z" stroke="#263238" stroke-linecap="round" stroke-linejoin="round"/>
<path d="M32.3999 44.7148V77.9878H60.528V44.7148H32.3999ZM59.3989 76.655H33.5232V46.0418H59.3989V76.655Z" fill="#263238" stroke="#263238" stroke-linecap="round" stroke-linejoin="round"/>
<path d="M80.1296 83.0176V105.716H99.3356V83.0176H80.1296ZM98.5441 104.808H80.8979V83.9197H98.5499L98.5441 104.808Z" fill="#263238" stroke="#263238" stroke-linecap="round" stroke-linejoin="round"/>
<path d="M66.4644 58.2012V77.9892H83.226V58.2012H66.4644ZM81.2122 75.6612H68.4548V60.5292H81.2122V75.6612Z" fill="#263238" stroke="#263238" stroke-linecap="round" stroke-linejoin="round"/>
<path d="M17.3494 85.9043V105.692H34.0877V85.9043H17.3494ZM32.0972 103.364H19.3398V88.2614H32.0972V103.364Z" fill="#263238" stroke="#263238" stroke-linecap="round" stroke-linejoin="round"/>
<path d="M38.7378 92.8242V105.71H49.6328V92.8242H38.7378ZM48.335 104.179H40.0357V94.3607H48.335V104.179Z" fill="#263238" stroke="#263238" stroke-linecap="round" stroke-linejoin="round"/>
<path d="M62.8967 92.8242V105.71H73.7918V92.8242H62.8967ZM72.4939 104.179H64.1946V94.3607H72.4939V104.179Z" fill="#263238" stroke="#263238" stroke-linecap="round" stroke-linejoin="round"/>
<path d="M104.725 69.125H111.069C111.466 69.125 111.846 69.2826 112.127 69.5631C112.407 69.8436 112.565 70.224 112.565 70.6207V77.9889H103.253V70.6266C103.251 70.2329 103.405 69.8544 103.68 69.5733C103.956 69.2922 104.332 69.1311 104.725 69.125V69.125Z" stroke="#263238" stroke-linecap="round" stroke-linejoin="round"/>
<path d="M110.714 67.0352H105.08V69.0605H110.714V67.0352Z" stroke="#263238" stroke-linecap="round" stroke-linejoin="round"/>
<path d="M109.043 66.9707C109.886 64.8579 110.877 62.8079 112.012 60.8365C113.403 58.654 116.767 56.873 118.943 56.873C121.12 56.873 125.281 59.2476 128.057 62.4195" stroke="#263238" stroke-linecap="round" stroke-linejoin="round"/>
<path d="M116.767 57.4674C116.767 57.4674 117.931 53.5098 121.522 51.9209C125.112 50.3321 128.651 50.9315 129.245 50.3379" stroke="#263238" stroke-linecap="round" stroke-linejoin="round"/>
<path d="M107.181 66.9313C107.174 65.3124 106.645 63.7389 105.674 62.4441C104.091 60.4653 100.331 59.6679 97.9505 61.2801C96.4424 62.3181 95.1068 63.5868 93.9929 65.0398" stroke="#263238" stroke-linecap="round" stroke-linejoin="round"/>
<path d="M100.925 60.6387C100.925 60.6387 98.358 63.2111 97.776 65.7661C97.4471 67.5418 97.5147 69.3682 97.9739 71.1147" stroke="#263238" stroke-linecap="round" stroke-linejoin="round"/>
<path d="M112.012 60.8362C114.06 56.9892 113.606 52.4787 115.149 48.4803C116.743 44.354 120.34 42.1249 124.688 41.8223" stroke="#263238" stroke-linecap="round" stroke-linejoin="round"/>
<path d="M94.3306 64.5449C94.3306 64.5449 92.701 64.5449 92.1597 65.8428C91.8341 66.6688 91.7219 67.5635 91.8338 68.4443C92.2928 68.3415 92.72 68.1289 93.0788 67.8248C93.4376 67.5207 93.7174 67.1342 93.8941 66.6983C94.5459 65.1851 94.3306 64.5449 94.3306 64.5449Z" fill="#92E3A9"/>
<path d="M97.3104 61.5817C97.3104 61.5817 96.6819 60.0801 95.2734 60.086C94.3854 60.1027 93.5162 60.3451 92.7476 60.7902C93.0187 61.173 93.3783 61.4846 93.7958 61.6984C94.2133 61.9122 94.6763 62.0219 95.1454 62.0182C96.7925 62.0357 97.3104 61.5817 97.3104 61.5817Z" fill="#92E3A9"/>
<path d="M97.2872 67.92C97.2872 67.92 95.8846 67.0936 94.7555 67.92C94.0531 68.4634 93.5003 69.1763 93.1492 69.992C93.5953 70.1383 94.0702 70.1745 94.5334 70.0974C94.9965 70.0204 95.4341 69.8325 95.8089 69.5496C97.1417 68.5893 97.2872 67.92 97.2872 67.92Z" fill="#92E3A9"/>
<path d="M97.8923 70.5977C97.8923 70.5977 96.6643 71.6685 97.1066 73.0013C97.4042 73.8389 97.9087 74.5877 98.5732 75.178C98.8512 74.8007 99.0339 74.3618 99.1059 73.8988C99.1778 73.4357 99.1368 72.9621 98.9865 72.5183C98.4801 70.9469 97.8923 70.5977 97.8923 70.5977Z" fill="#92E3A9"/>
<path d="M97.8284 64.9222C97.8284 64.9222 97.4151 66.4936 98.5326 67.3491C99.2481 67.874 100.085 68.2084 100.965 68.3211C100.982 67.8518 100.885 67.3854 100.682 66.9617C100.479 66.5381 100.177 66.1698 99.8013 65.8883C98.5093 64.8756 97.8284 64.9222 97.8284 64.9222Z" fill="#92E3A9"/>
<path d="M99.2951 60.267C99.2951 60.267 99.7839 58.7188 98.7131 57.8051C98.0243 57.2459 97.2056 56.8696 96.3327 56.7109C96.2917 57.1775 96.364 57.647 96.5433 58.0797C96.7227 58.5123 97.0038 58.8953 97.3628 59.1961C98.6083 60.2786 99.2951 60.267 99.2951 60.267Z" fill="#92E3A9"/>
<path d="M102.211 60.4243C102.211 60.4243 103.416 59.3359 102.95 58.0032C102.635 57.179 102.119 56.4468 101.448 55.873C101.176 56.2545 101 56.6961 100.935 57.1602C100.871 57.6243 100.919 58.0971 101.076 58.5386C101.611 60.0867 102.211 60.4243 102.211 60.4243Z" fill="#92E3A9"/>
<path d="M118.687 53.9164C118.687 53.9164 119.892 52.828 119.426 51.5011C119.115 50.6684 118.599 49.9277 117.925 49.3477C117.653 49.7303 117.477 50.1731 117.414 50.6383C117.35 51.1035 117.399 51.5772 117.558 52.019C118.088 53.5788 118.687 53.9164 118.687 53.9164Z" fill="#92E3A9"/>
<path d="M123.46 51.4261C123.46 51.4261 124.664 50.3378 124.199 49.005C123.886 48.1745 123.37 47.436 122.697 46.8574C122.425 47.2389 122.249 47.6805 122.184 48.1446C122.119 48.6086 122.168 49.0815 122.325 49.523C122.86 51.0886 123.46 51.4261 123.46 51.4261Z" fill="#92E3A9"/>
<path d="M127.458 50.6644C127.458 50.6644 128.663 49.5761 128.197 48.2491C127.884 47.4175 127.367 46.6773 126.695 46.0957C126.423 46.4784 126.248 46.9212 126.184 47.3864C126.12 47.8515 126.17 48.3253 126.329 48.7671C126.876 50.3268 127.458 50.6644 127.458 50.6644Z" fill="#92E3A9"/>
<path d="M100.471 64.7309C100.471 64.7309 102.1 64.6785 102.601 63.3632C102.901 62.5265 102.983 61.6272 102.839 60.75C102.385 60.8664 101.966 61.0907 101.618 61.4038C101.269 61.7169 101.001 62.1096 100.837 62.5484C100.238 64.0907 100.471 64.7309 100.471 64.7309Z" fill="#92E3A9"/>
<path d="M126.707 54.3019C126.707 54.3019 127.068 52.7188 125.921 51.8982C125.191 51.3936 124.343 51.0832 123.46 50.9961C123.456 51.4652 123.566 51.9282 123.779 52.3457C123.993 52.7632 124.305 53.1228 124.688 53.3939C126.02 54.3659 126.707 54.3019 126.707 54.3019Z" fill="#92E3A9"/>
<path d="M130.606 54.1963C130.606 54.1963 130.973 52.6075 129.827 51.7869C129.095 51.2835 128.248 50.9731 127.365 50.8848C127.364 51.3564 127.478 51.8211 127.697 52.2388C127.916 52.6565 128.234 53.0147 128.622 53.2826C129.926 54.2604 130.606 54.1963 130.606 54.1963Z" fill="#92E3A9"/>
<path d="M96.1522 66.5703C96.1522 66.5703 97.5898 65.8137 97.4617 64.4111C97.364 63.5278 97.0457 62.6833 96.5363 61.9551C96.1788 62.2588 95.8999 62.6445 95.7236 63.0792C95.5473 63.514 95.4787 63.9849 95.5237 64.4519C95.6575 66.0989 96.1522 66.5703 96.1522 66.5703Z" fill="#92E3A9"/>
<path d="M112.739 64.1894C112.739 64.1894 114.177 63.427 114.049 62.0244C113.951 61.1411 113.633 60.2965 113.123 59.5684C112.766 59.8721 112.487 60.2577 112.311 60.6925C112.134 61.1272 112.066 61.5982 112.111 62.0651C112.244 63.7122 112.739 64.1894 112.739 64.1894Z" fill="#92E3A9"/>
<path d="M109.62 59.1309C109.62 59.1309 108.456 60.2949 108.962 61.5753C109.302 62.3961 109.844 63.1171 110.539 63.6705C110.797 63.2792 110.957 62.8315 111.004 62.3654C111.052 61.8993 110.986 61.4286 110.813 60.9933C110.225 59.451 109.62 59.1309 109.62 59.1309Z" fill="#92E3A9"/>
<path d="M116.755 61.8028C116.755 61.8028 118.192 61.0403 118.064 59.6377C117.967 58.7553 117.646 57.9121 117.133 57.1875C116.778 57.4912 116.5 57.8762 116.325 58.3098C116.15 58.7434 116.082 59.2129 116.126 59.6785C116.254 61.3255 116.755 61.8028 116.755 61.8028Z" fill="#92E3A9"/>
<path d="M121.638 61.809C121.638 61.809 122.837 60.709 122.354 59.382C122.033 58.5535 121.508 57.819 120.829 57.2461C120.554 57.6331 120.378 58.0815 120.316 58.5522C120.254 59.0229 120.308 59.5016 120.474 59.9466C121.009 61.4772 121.638 61.809 121.638 61.809Z" fill="#92E3A9"/>
<path d="M125.403 63.8695C125.403 63.8695 126.602 62.7695 126.119 61.4426C125.798 60.6141 125.274 59.8796 124.594 59.3066C124.327 59.6918 124.157 60.1358 124.098 60.6009C124.039 61.0661 124.094 61.5385 124.257 61.978C124.804 63.5378 125.403 63.8695 125.403 63.8695Z" fill="#92E3A9"/>
<path d="M130.263 59.1964C130.263 59.1964 129.239 57.9393 127.889 58.3409C127.041 58.6102 126.276 59.0909 125.666 59.7377C126.034 60.0274 126.468 60.2238 126.929 60.3099C127.39 60.396 127.865 60.3694 128.314 60.2324C129.897 59.7784 130.263 59.1964 130.263 59.1964Z" fill="#92E3A9"/>
<path d="M125.159 45.0596C125.159 45.0596 125.159 43.4358 123.85 42.8945C123.023 42.5725 122.128 42.4644 121.248 42.5803C121.352 43.0382 121.565 43.4642 121.869 43.8219C122.173 44.1796 122.559 44.4585 122.994 44.6347C124.507 45.2807 125.159 45.0596 125.159 45.0596Z" fill="#92E3A9"/>
<path d="M123.204 38.459C123.204 38.459 121.592 38.6801 121.231 40.042C121.019 40.9057 121.031 41.809 121.266 42.6668C121.705 42.5033 122.099 42.2359 122.413 41.8873C122.728 41.5386 122.953 41.1192 123.07 40.6648C123.506 39.0759 123.204 38.459 123.204 38.459Z" fill="#92E3A9"/>
<path d="M120.713 47.2295C120.713 47.2295 120.713 45.5999 119.409 45.0644C118.581 44.738 117.684 44.6278 116.802 44.7443C116.905 45.2022 117.118 45.6282 117.422 45.986C117.726 46.3437 118.112 46.6226 118.548 46.7988C120.067 47.4448 120.713 47.2295 120.713 47.2295Z" fill="#92E3A9"/>
<path d="M118.757 40.625C118.757 40.625 117.145 40.852 116.784 42.2139C116.576 43.076 116.588 43.9766 116.819 44.8329C117.258 44.6699 117.652 44.4033 117.966 44.0558C118.28 43.7082 118.505 43.29 118.623 42.8366C119.06 41.2419 118.757 40.625 118.757 40.625Z" fill="#92E3A9"/>
<path d="M119.054 49.9236C119.054 49.9236 118.047 48.649 116.691 49.0331C115.841 49.2881 115.07 49.7547 114.45 50.3892C114.814 50.685 115.243 50.8887 115.702 50.9829C116.161 51.0771 116.636 51.0591 117.087 50.9304C118.681 50.4997 119.054 49.9236 119.054 49.9236Z" fill="#92E3A9"/>
<path d="M113.432 45.9785C113.432 45.9785 112.303 47.1425 112.85 48.4404C113.218 49.249 113.785 49.9516 114.497 50.4832C114.742 50.0828 114.886 49.6291 114.917 49.1609C114.949 48.6927 114.866 48.2239 114.677 47.7944C114.072 46.2462 113.432 45.9785 113.432 45.9785Z" fill="#92E3A9"/>
<path d="M117.861 55.4529C117.861 55.4529 116.854 54.1783 115.498 54.5624C114.649 54.8195 113.879 55.2858 113.257 55.9185C113.62 56.2143 114.05 56.418 114.509 56.5122C114.968 56.6064 115.443 56.5884 115.894 56.4597C117.488 56.029 117.861 55.4529 117.861 55.4529Z" fill="#92E3A9"/>
<path d="M112.239 51.4785C112.239 51.4785 111.11 52.6425 111.657 53.9404C112.025 54.749 112.592 55.4516 113.304 55.9832C113.548 55.5828 113.693 55.1291 113.724 54.6609C113.755 54.1927 113.673 53.7239 113.484 53.2944C112.861 51.7986 112.239 51.4785 112.239 51.4785Z" fill="#92E3A9"/>
<path d="M125.712 56.8097C125.712 56.8097 124.682 55.5526 123.332 55.9542C122.484 56.2235 121.719 56.7042 121.108 57.351C121.477 57.6407 121.911 57.837 122.372 57.9232C122.833 58.0093 123.308 57.9827 123.757 57.8457C125.345 57.3917 125.712 56.8097 125.712 56.8097Z" fill="#92E3A9"/>
<path d="M123.11 54.1259C123.11 54.1259 122.08 52.863 120.73 53.2704C119.884 53.5397 119.119 54.0181 118.507 54.6614C118.875 54.9521 119.308 55.1495 119.769 55.2367C120.231 55.3238 120.706 55.2982 121.155 55.1619C122.744 54.7079 123.11 54.1259 123.11 54.1259Z" fill="#92E3A9"/>
<path d="M133.278 49.8722C133.278 49.8722 132.248 48.6151 130.898 49.0167C130.05 49.286 129.285 49.7667 128.674 50.4135C129.043 50.7032 129.477 50.8995 129.938 50.9857C130.399 51.0718 130.874 51.0452 131.322 50.9082C132.935 50.4542 133.278 49.8722 133.278 49.8722Z" fill="#92E3A9"/>
<path d="M128.855 41.323C128.855 41.323 127.825 40.0601 126.474 40.4617C125.63 40.7335 124.867 41.2139 124.257 41.8585C124.625 42.1483 125.057 42.3451 125.517 42.4323C125.977 42.5194 126.451 42.4943 126.899 42.359C128.488 41.905 128.855 41.323 128.855 41.323Z" fill="#92E3A9"/>
<path d="M128.872 66.9301C128.872 66.9301 130.071 65.8301 129.588 64.509C129.269 63.6791 128.745 62.9441 128.063 62.373C127.796 62.7582 127.626 63.2022 127.567 63.6673C127.508 64.1325 127.563 64.6049 127.726 65.0444C128.273 66.5693 128.872 66.9301 128.872 66.9301Z" fill="#92E3A9"/>
<path d="M113.566 105.708H119.77C121.871 104.283 123.303 101.448 123.303 98.1832C123.326 96.2164 122.767 94.2867 121.696 92.6367H111.639C110.569 94.2867 110.01 96.2164 110.033 98.1832C110.033 101.448 111.465 104.283 113.566 105.708Z" stroke="#263238" stroke-linecap="round" stroke-linejoin="round"/>
<path d="M133.604 84.2051H129.64V105.989H133.604V84.2051Z" stroke="#263238" stroke-linecap="round" stroke-linejoin="round"/>
<path d="M137.957 84.2051H133.994V105.989H137.957V84.2051Z" stroke="#263238" stroke-linecap="round" stroke-linejoin="round"/>
<path d="M142.316 84.2051H138.353V105.989H142.316V84.2051Z" stroke="#263238" stroke-linecap="round" stroke-linejoin="round"/>
<path d="M33.7152 206.087C32.1417 202.78 31.7872 199.025 32.7142 195.483C34.2506 189.441 34.8094 190.454 33.2089 186.974C31.6084 183.493 30.2232 182.783 31.1777 179.798C32.1322 176.812 33.7734 172.144 33.1798 169.322C32.5861 166.499 31.2941 165.335 31.8761 162.279C32.4581 159.224 34.2565 157.751 33.3776 154.417C32.4988 151.082 30.9623 151.239 31.5443 148.178C32.1263 145.116 32.9411 144.883 32.7083 142.119C32.4755 139.354 33.1157 138.045 33.1157 138.045C33.1157 138.045 34.1692 142.369 34.8617 144.761C35.5543 147.153 35.6533 148.533 35.3215 150.279C34.9898 152.025 38.9474 155.051 39.0638 156.43C39.1802 157.81 40.0241 159.34 38.7088 162.25C37.3934 165.16 37.0617 166.906 37.8183 168.868C38.5749 170.829 39.3955 170.526 38.6447 174.461C37.894 178.395 35.6183 178.407 37.3061 181.445C38.9939 184.483 40.0066 185.129 39.2267 187.265C38.4469 189.401 37.213 191.862 37.6903 193.312C37.9679 194.032 38.3067 194.727 38.7029 195.389C39.671 197.106 39.9949 199.112 39.6167 201.046L39.3897 202.24L40.1288 208.263L36.5379 211.202C36.5379 211.202 34.8734 209.934 33.7152 206.087Z" fill="#92E3A9"/>
<path d="M29.5714 206.611C28.532 205.455 27.7337 204.104 27.223 202.636C26.7123 201.167 26.4997 199.612 26.5974 198.061C26.9699 192.858 27.7148 193.603 25.4858 191.001C23.2567 188.4 21.7668 188.033 22.1393 185.432C22.5118 182.83 23.2567 178.744 22.1393 176.515C21.0218 174.286 19.5377 173.541 19.5377 170.94C19.5377 168.338 21.0277 166.866 19.5377 164.253C18.0478 161.64 16.5637 162.024 16.5637 159.422C16.5637 156.821 17.3087 154.591 16.5637 152.362C15.8188 150.133 16.3076 150.616 16.3076 150.616C16.3076 150.616 18.0536 154.242 19.1653 156.099C20.2769 157.955 20.6552 159.073 20.6552 160.557C20.6552 162.041 25.1133 163.903 25.4858 165.015C25.8583 166.127 26.9699 167.25 26.2249 169.846C25.48 172.441 25.4858 173.92 26.5974 175.421C27.709 176.923 28.454 176.539 28.454 179.879C28.454 183.22 26.2249 183.593 28.454 185.827C30.683 188.062 31.8005 188.423 31.428 190.286C31.0555 192.148 30.3164 194.36 31.0555 195.483C31.3358 195.872 31.6472 196.238 31.9867 196.577C33.532 198.17 34.398 200.3 34.402 202.519V202.519L36.2586 207.35L33.2846 210.324C33.2846 210.324 31.428 209.579 29.5714 206.611Z" fill="#92E3A9"/>
<path d="M50.7504 206.61C51.7882 205.454 52.5852 204.102 53.0948 202.634C53.6044 201.166 53.8165 199.612 53.7186 198.061C53.352 192.858 52.607 193.603 54.8361 191.001C57.0651 188.4 58.5492 188.033 58.1826 185.431C57.8159 182.83 57.0651 178.744 58.1826 176.515C59.3 174.286 60.7783 173.541 60.7783 170.94C60.7783 168.338 59.2942 166.866 60.7783 164.252C62.2624 161.639 63.7523 162.023 63.7523 159.422C63.7523 156.82 63.0073 154.591 63.7523 152.362C64.4973 150.133 63.6068 151.408 63.6068 151.408C63.6068 151.408 62.2682 154.219 61.1508 156.064C60.0333 157.909 59.6666 159.038 59.6666 160.522C59.6666 162.006 55.2085 163.868 54.8361 164.98C54.4636 166.092 53.352 167.215 54.0911 169.811C54.8302 172.406 54.8361 173.885 53.7186 175.386C52.6012 176.888 51.862 176.504 51.862 179.844C51.862 183.185 54.0911 183.557 51.862 185.792C49.633 188.027 48.5214 188.388 48.8938 190.25C49.2663 192.113 50.0055 194.324 49.2605 195.448C48.988 195.833 48.6822 196.193 48.3468 196.524C46.7872 198.137 45.9168 200.293 45.9198 202.536V202.536L44.0632 207.367L47.0314 210.341C47.0314 210.341 48.888 209.579 50.7504 206.61Z" fill="#92E3A9"/>
<path d="M44.1971 207.541C44.8724 206.485 45.3305 205.305 45.5443 204.07C45.7582 202.835 45.7236 201.569 45.4425 200.348C44.4648 196.274 43.9701 196.943 45.4018 194.58C46.8335 192.217 47.9684 191.722 47.3282 189.703C46.688 187.683 45.5822 184.523 46.1642 182.602C46.7462 180.682 47.8462 179.89 47.5028 177.818C47.1594 175.747 45.7568 174.763 46.624 172.493C47.4912 170.223 48.6959 170.328 48.37 168.262C48.0441 166.196 47.142 164.514 47.4446 162.64C47.7473 160.766 47.0896 161.255 47.0896 161.255C46.7882 162.843 46.3779 164.408 45.8616 165.94C45.2156 167.564 45.0701 168.501 45.2796 169.682C45.4891 170.864 42.1717 172.935 42.0204 173.867C41.8691 174.798 41.1299 175.84 42.0669 177.813C43.004 179.786 43.196 180.967 42.5034 182.3C41.8109 183.633 41.1707 183.429 41.6072 186.094C42.0437 188.76 43.8711 188.76 42.3929 190.826C40.9146 192.892 40.0649 193.34 40.6119 194.766C41.159 196.192 42.0378 197.874 41.5897 198.84C40.9283 199.943 40.1707 200.985 39.3257 201.954L39.8146 204.911L38.9707 208.985L41.7294 210.958C41.7294 210.958 43.1087 210.154 44.1971 207.541Z" fill="#92E3A9"/>
<path d="M55.098 204.516L54.225 226.306H51.8039V243.108H27.2842V226.306H25.0202L24.1472 204.516H55.098Z" fill="#263238" stroke="#263238" stroke-miterlimit="10"/>
<path d="M24.3042 208.502L24.4322 211.656H54.8126L54.9349 208.502H24.3042Z" fill="white" stroke="#263238" stroke-miterlimit="10"/>
<path d="M54.58 217.395L54.6615 215.387H24.5837L24.6652 217.395H54.58Z" fill="white" stroke="#263238" stroke-miterlimit="10"/>
<path d="M25.0203 226.299H23.9377V266.8H27.2842V243.107" stroke="#263238" stroke-miterlimit="10"/>
<path d="M54.2248 226.299H55.1444V266.8H51.8037V243.107" stroke="#263238" stroke-miterlimit="10"/>
<path d="M79.6991 183.913C79.6991 183.913 73.1108 146.374 73.1108 137.935C73.1108 129.496 81.7826 116.11 101.897 110.872C122.01 105.634 147.677 109.126 155.307 112.909C162.937 116.692 167.441 124.84 169.176 138.226C170.91 151.612 174.379 205.447 174.379 205.447L82.8244 206.902L79.6991 183.913Z" fill="#666666" stroke="#263238" stroke-linecap="round" stroke-linejoin="round"/>
<path d="M188.702 256.262C186.746 258.391 184.414 260.142 181.823 261.424C177.749 263.356 175.799 265.498 176.003 267.011C176.206 268.524 178.587 268.757 182.667 268.949C186.746 269.141 201.157 268.519 203.526 268.519C205.894 268.519 207.821 267.873 207.821 265.935C207.821 263.996 207.39 259.055 207.39 259.055L188.702 256.262Z" fill="white" stroke="#263238" stroke-linecap="round" stroke-linejoin="round"/>
<path d="M197.298 266.795C189.697 266.795 179.483 266.358 176.096 266.213C176.01 266.471 175.982 266.746 176.014 267.016C176.23 268.523 178.598 268.762 182.678 268.954C186.758 269.146 201.168 268.523 203.537 268.523C205.667 268.523 207.448 267.994 207.774 266.469C205.493 266.626 202.012 266.795 197.298 266.795Z" fill="white" stroke="#263238" stroke-linecap="round" stroke-linejoin="round"/>
<path d="M209.124 161.885C209.124 161.885 201.168 194.564 201.168 197.142C201.168 199.721 208.693 211.547 208.909 220.789C209.124 230.031 205.685 248.096 206.331 250.029C206.977 251.961 208.077 253.253 207.832 254.976C207.588 256.698 206.977 261.209 206.977 261.209C206.977 261.209 203.962 261.424 197.729 260.132C194.181 259.431 190.72 258.35 187.404 256.908C187.404 256.908 186.973 252.392 186.973 251.536C186.973 250.681 187.835 248.521 188.05 246.804C188.265 245.087 187.404 228.314 185.687 219.503C183.97 210.691 180.74 199.29 180.74 193.272C180.74 187.254 180.525 165.97 180.525 165.97C184.682 163.107 189.068 160.59 193.637 158.445C201.378 154.79 206.755 156.728 206.755 156.728L209.124 161.885Z" fill="#92E3A9" stroke="#263238" stroke-linecap="round" stroke-linejoin="round"/>
<path d="M196.506 157.297C195.529 157.626 194.573 158.014 193.643 158.461C189.726 160.316 185.936 162.429 182.3 164.787L183.708 167.819C183.708 167.819 198.928 172.708 206.441 171.765L206.761 171.719C208.088 166.155 209.124 161.9 209.124 161.9L207.658 158.711C207.05 158.328 206.386 158.043 205.69 157.867C204.864 157.751 200.697 157.512 196.506 157.297Z" fill="#263238" stroke="#263238" stroke-linecap="round" stroke-linejoin="round"/>
<path d="M212.349 256.262C210.385 258.392 208.045 260.143 205.446 261.424C201.372 263.356 199.428 265.498 199.626 267.011C199.824 268.524 202.204 268.757 206.29 268.949C210.376 269.141 224.78 268.519 227.143 268.519C229.506 268.519 231.444 267.873 231.444 265.935C231.444 263.996 231.013 259.055 231.013 259.055L212.349 256.262Z" fill="white" stroke="#263238" stroke-linecap="round" stroke-linejoin="round"/>
<path d="M220.945 266.795C213.344 266.795 203.13 266.358 199.742 266.213C199.657 266.471 199.629 266.746 199.661 267.016C199.876 268.523 202.239 268.762 206.325 268.954C210.411 269.146 224.815 268.523 227.178 268.523C229.314 268.523 231.089 267.994 231.421 266.469C229.139 266.626 225.659 266.795 220.945 266.795Z" fill="white" stroke="#263238" stroke-linecap="round" stroke-linejoin="round"/>
<path d="M232.8 161.885C232.8 161.885 224.844 194.564 224.844 197.142C224.844 199.721 232.369 211.547 232.585 220.789C232.8 230.031 229.36 248.096 230.001 250.029C230.641 251.961 231.747 253.253 231.508 254.976C231.269 256.698 230.647 261.209 230.647 261.209C230.647 261.209 227.638 261.424 221.404 260.132C217.859 259.43 214.4 258.349 211.086 256.908C211.086 256.908 210.655 252.392 210.655 251.536C210.655 250.681 211.516 248.521 211.732 246.804C211.947 245.087 211.086 228.314 209.363 219.503C207.64 210.691 204.422 199.29 204.422 193.272C204.422 187.254 204.206 165.97 204.206 165.97C208.363 163.106 212.748 160.589 217.319 158.445C225.059 154.79 230.431 156.728 230.431 156.728L232.8 161.885Z" fill="#92E3A9" stroke="#263238" stroke-linecap="round" stroke-linejoin="round"/>
<path d="M225.659 156.238C222.751 156.415 219.907 157.165 217.29 158.444C212.719 160.588 208.334 163.104 204.177 165.969C204.177 165.969 204.177 168.425 204.235 171.9C205.603 172.185 209.38 172.744 216.585 172.313C224.536 171.836 229.512 170.288 230.856 169.822L231.275 168.076L231.426 160.656C231.426 160.656 227.853 157.722 225.659 156.238Z" fill="#263238" stroke="#263238" stroke-linecap="round" stroke-linejoin="round"/>
<path d="M186.508 94.5589C186.508 94.5589 181.27 96.1594 179.96 97.0324C178.651 97.9054 176.614 104.744 176.032 106.344C175.45 107.945 172.394 116.238 172.394 116.238L177.341 117.257C177.341 117.257 177.196 122.204 177.923 124.241C178.651 126.278 183.889 132.389 183.889 132.389L185.78 137.481L183.743 165.708C183.743 165.708 191.164 169.637 203.677 170.801C216.19 171.965 224.774 170.801 225.793 170.219C226.396 169.872 227.029 169.58 227.684 169.346L228.557 165.272L229.867 169.055C231.501 168.902 233.113 168.561 234.668 168.036C236.414 167.309 239.033 165.854 239.033 165.854C239.033 165.854 233.65 145.484 231.322 139.955C228.994 134.426 225.065 125.841 225.065 125.841C225.065 125.841 223.319 105.908 219.827 99.2149C216.335 92.5219 209.788 90.7759 205.132 90.3394C200.476 89.9029 186.508 94.5589 186.508 94.5589Z" fill="#92E3A9" stroke="#263238" stroke-linecap="round" stroke-linejoin="round"/>
<path d="M185.076 95.2734C184.098 98.5977 183.556 102.035 183.464 105.499Z" fill="white"/>
<path d="M185.076 95.2734C184.098 98.5977 183.556 102.035 183.464 105.499" stroke="#263238" stroke-width="2" stroke-linecap="round" stroke-linejoin="round"/>
<path d="M184.168 127.459C184.105 127.457 184.042 127.447 183.982 127.43C183.67 127.315 183.368 127.175 183.08 127.011C182.818 127.185 182.602 127.313 182.498 127.377C182.366 127.437 182.218 127.445 182.081 127.401C181.943 127.357 181.827 127.264 181.755 127.139C181.682 127.015 181.659 126.868 181.689 126.727C181.718 126.586 181.799 126.461 181.916 126.376L182.079 126.277C181.537 125.814 181.134 125.209 180.915 124.531C180.333 122.675 179.96 107.019 180.979 105.389C181.252 104.948 181.659 104.604 182.14 104.408C182.621 104.211 183.151 104.172 183.656 104.295C184.238 104.452 185.687 105.11 185.821 107.822C185.99 111.169 186.193 122.535 185.996 123.908C185.879 124.706 185.006 125.573 184.151 126.236C184.214 126.267 184.281 126.292 184.348 126.312C184.421 126.336 184.488 126.375 184.546 126.425C184.604 126.476 184.651 126.537 184.685 126.606C184.72 126.674 184.74 126.749 184.745 126.825C184.75 126.902 184.74 126.979 184.715 127.051C184.678 127.168 184.606 127.27 184.508 127.344C184.409 127.417 184.291 127.457 184.168 127.459V127.459ZM183.074 105.343C182.852 105.346 182.635 105.405 182.442 105.513C182.249 105.622 182.086 105.778 181.968 105.965C181.235 107.228 181.503 122.389 182.032 124.159C182.225 124.723 182.587 125.215 183.068 125.567C183.999 124.88 184.785 124.135 184.849 123.705C185.024 122.488 184.849 111.43 184.663 107.839C184.593 106.472 184.127 105.575 183.371 105.383C183.274 105.356 183.174 105.342 183.074 105.343V105.343Z" fill="white" stroke="#263238" stroke-linecap="round" stroke-linejoin="round"/>
<path d="M182.061 126.26L183.08 126.993C182.663 127.341 182.188 127.612 181.677 127.796C181.136 127.907 180.705 127.459 182.061 126.26Z" fill="#263238" stroke="#263238" stroke-linecap="round" stroke-linejoin="round"/>
<path d="M184.157 126.23L183.08 126.993C183.08 126.993 184.174 128.448 185.367 127.907C186.56 127.365 184.157 126.23 184.157 126.23Z" fill="#263238" stroke="#263238" stroke-linecap="round" stroke-linejoin="round"/>
<path d="M199.626 90.2461C199.626 90.2461 197.298 101.915 197.298 111.064" stroke="#263238" stroke-width="2" stroke-linecap="round" stroke-linejoin="round"/>
<path d="M199.964 113.216C199.964 115.498 198.637 117.348 197.001 117.348C195.366 117.348 194.039 115.498 194.039 113.216C194.039 110.935 195.366 109.09 197.001 109.09C198.637 109.09 199.964 110.941 199.964 113.216Z" fill="white" stroke="#263238" stroke-linecap="round" stroke-linejoin="round"/>
<path d="M197.81 112.681C197.81 114.131 196.966 115.306 195.925 115.306C194.883 115.306 194.039 114.142 194.039 112.681C194.039 111.221 194.883 110.057 195.925 110.057C196.966 110.057 197.81 111.232 197.81 112.681Z" fill="white" stroke="#263238" stroke-linecap="round" stroke-linejoin="round"/>
<path d="M226.567 105.616L222.155 109.981L219.682 105.471L226.567 105.616Z" fill="#263238" stroke="#263238" stroke-linecap="round" stroke-linejoin="round"/>
<path d="M207.361 109.301L209.107 124.625C209.107 124.625 183.889 129.479 181.171 129.281C177.928 128.932 174.652 129.469 171.69 130.835C167.808 132.581 165.87 133.553 166.062 134.519C166.254 135.485 168 138.593 168 138.593C168 138.593 171.3 138.791 171.492 138.209C171.62 137.766 171.687 137.307 171.69 136.847C171.69 136.847 175.182 137.045 176.73 136.265C177.724 135.752 178.639 135.099 179.448 134.327C179.448 134.327 199.818 135.881 207.576 136.073C215.334 136.265 224.262 135.683 225.234 134.327C226.206 132.971 221.742 105.227 221.742 105.227L207.361 109.301Z" fill="white" stroke="#263238" stroke-linecap="round" stroke-linejoin="round"/>
<path d="M209.107 124.623C209.107 124.623 216.94 121.818 221.329 123.517" stroke="#263238" stroke-linecap="round" stroke-linejoin="round"/>
<path d="M181.171 129.281L181.625 134.443L183.93 134.804L183.441 128.979L181.171 129.281Z" fill="white" stroke="#263238" stroke-linecap="round" stroke-linejoin="round"/>
<path d="M184.29 128.873C184.319 129.408 183.534 129.892 182.544 129.95C181.555 130.008 180.699 129.624 180.664 129.088C180.63 128.553 181.421 128.07 182.41 128.012C183.4 127.953 184.255 128.338 184.29 128.873Z" fill="white" stroke="#263238" stroke-linecap="round" stroke-linejoin="round"/>
<path d="M171.667 136.846L169.606 136.264" stroke="#263238" stroke-linecap="round" stroke-linejoin="round"/>
<path d="M205.807 100.57L206.779 111.628L226.567 105.616C226.567 105.616 219.996 94.168 216.283 91.258C212.57 88.348 205.033 90.8681 204.061 91.648" fill="#92E3A9"/>
<path d="M205.807 100.57L206.779 111.628L226.567 105.616C226.567 105.616 219.996 94.168 216.283 91.258C212.57 88.348 205.033 90.8681 204.061 91.648" stroke="#263238" stroke-linecap="round" stroke-linejoin="round"/>
<path d="M168.029 63.8576C168.029 63.8576 160.9 70.5506 163.81 73.7516C166.72 76.9526 170.794 78.9896 171.376 82.6271C171.958 86.2646 173.122 88.4471 171.521 91.6481C169.921 94.8491 168.757 95.5766 168.757 95.5766C168.757 95.5766 175.595 99.0686 179.96 98.7776C184.325 98.4866 190.582 93.5396 190.582 93.5396C190.582 93.5396 200.767 93.3941 205.277 89.4656C209.788 85.5371 209.642 78.8441 207.751 74.1881C205.859 69.5321 199.312 64.0205 196.134 60.5285C192.956 57.0365 186.676 54.7085 180.129 55.436C173.581 56.1635 168.029 63.8576 168.029 63.8576Z" fill="#263238" stroke="#263238" stroke-linecap="round" stroke-linejoin="round"/>
<path d="M184.494 94.9953C184.494 94.9953 185.804 98.3418 186.677 101.397C187.55 104.453 189.878 112.164 189.878 111.728C189.878 111.291 194.534 99.6513 195.698 96.3048C196.392 94.3318 196.832 92.2782 197.007 90.1938L193.079 81.0273C191.847 83.7839 190.064 86.2596 187.841 88.3023C184.349 91.3578 183.476 92.8128 183.476 92.8128L184.494 94.9953Z" fill="white" stroke="#263238" stroke-linecap="round" stroke-linejoin="round"/>
<path d="M185.146 96.31C185.146 96.31 191.158 94.6164 193.788 92.3641C196.419 90.1117 196.605 89.5414 196.605 89.5414L193.41 83.5293L185.146 96.31Z" fill="#263238" stroke="#263238" stroke-linecap="round" stroke-linejoin="round"/>
<path d="M168.902 75.4969C168.902 75.4969 171.521 82.0444 171.958 83.9359C172.394 85.8274 173.995 89.4649 176.468 91.6474C178.942 93.8299 180.542 96.7399 184.471 96.1579C188.399 95.5759 193.201 88.5919 194.074 86.4094C194.947 84.2269 192.91 78.2614 192.91 77.5339C192.898 77.3124 192.824 77.099 192.695 76.9185C192.566 76.7381 192.388 76.5982 192.182 76.5154C192.182 76.5154 185.198 79.2799 180.397 77.2429C177.189 75.808 174.162 74.0011 171.376 71.8594L168.902 75.4969Z" fill="white" stroke="#263238" stroke-linecap="round" stroke-linejoin="round"/>
<path d="M188.836 78.9888C188.836 78.9888 190.727 74.0418 193.492 74.6238C196.256 75.2058 195.965 80.0073 194.51 81.7533C193.055 83.4993 191.891 82.6263 191.891 82.6263" fill="white"/>
<path d="M188.836 78.9888C188.836 78.9888 190.727 74.0418 193.492 74.6238C196.256 75.2058 195.965 80.0073 194.51 81.7533C193.055 83.4993 191.891 82.6263 191.891 82.6263" stroke="#263238" stroke-linecap="round" stroke-linejoin="round"/>
<path d="M176.928 80.3164C177.114 81.2263 177.212 82.1522 177.219 83.0809C177.219 84.5359 176.491 86.8639 177.801 87.4459C179.11 88.0279 181.002 87.4459 181.438 86.7184" stroke="#263238" stroke-linecap="round" stroke-linejoin="round"/>
<path d="M179.378 89.6277C179.378 89.6277 183.307 90.5007 185.489 85.9902" stroke="#263238" stroke-linecap="round" stroke-linejoin="round"/>
<path d="M181.124 81.3173C181.851 81.5924 182.65 81.6127 183.39 81.3748C184.13 81.1369 184.768 80.655 185.198 80.0078" stroke="#263238" stroke-linecap="round" stroke-linejoin="round"/>
<path d="M173.267 82.3369C173.267 82.3369 175.159 83.2099 176.323 81.9004" stroke="#263238" stroke-linecap="round" stroke-linejoin="round"/>
<path d="M176.177 79.5709C176.177 79.5709 174.286 78.2614 172.685 79.8619" stroke="#263238" stroke-linecap="round" stroke-linejoin="round"/>
<path d="M178.796 78.1165C178.796 78.1165 179.669 76.6615 182.434 76.9525" stroke="#263238" stroke-linecap="round" stroke-linejoin="round"/>
<path d="M151.169 116.156C151.169 116.156 156.407 117.32 158.153 124.112C159.899 130.904 168.419 158.305 168.419 158.305C168.419 158.305 177.434 163.455 180.152 163.845C182.87 164.235 185.192 164.427 185.39 167.337C185.588 170.247 184.808 174.903 183.254 175.677C181.7 176.451 175.88 176.457 171.614 176.259C167.348 176.062 164.63 175.095 162.302 173.547C159.974 171.999 157.454 156.669 154.736 149.295C152.018 141.921 146.513 126.65 147.095 122.774C147.677 118.897 149.231 116.156 151.169 116.156Z" fill="#92E3A9" stroke="#263238" stroke-linecap="round" stroke-linejoin="round"/>
<path d="M171.69 179.838L167.948 179.558C166.444 179.444 164.932 179.645 163.509 180.147C162.087 180.649 160.784 181.442 159.685 182.475C158.586 183.508 157.714 184.759 157.124 186.147C156.535 187.536 156.241 189.032 156.261 190.541L156.96 266.125C156.964 266.702 157.197 267.255 157.607 267.661C158.017 268.068 158.571 268.296 159.148 268.296H193.381L202.169 179.547L171.69 179.838Z" fill="#333333" stroke="#263238" stroke-linecap="round" stroke-linejoin="round"/>
<path d="M193.369 268.302C192.792 268.302 192.238 268.074 191.828 267.667C191.418 267.26 191.186 266.708 191.181 266.131L190.483 190.547C190.462 189.038 190.756 187.542 191.346 186.153C191.935 184.765 192.807 183.514 193.907 182.481C195.006 181.448 196.308 180.655 197.731 180.153C199.153 179.651 200.665 179.45 202.169 179.564L205.911 179.844C207.387 179.955 208.825 180.367 210.136 181.053C211.447 181.739 212.604 182.686 213.537 183.835C214.47 184.984 215.158 186.311 215.56 187.735C215.962 189.16 216.07 190.651 215.875 192.118L206.028 266.381C205.96 266.907 205.703 267.391 205.304 267.741C204.906 268.091 204.393 268.285 203.863 268.284L193.369 268.302Z" fill="#666666" stroke="#263238" stroke-linecap="round" stroke-linejoin="round"/>
<path d="M114.142 196.717H179.908C181.76 196.717 183.537 197.453 184.846 198.762C186.156 200.072 186.892 201.849 186.892 203.701V268.303H114.142V196.717Z" fill="#666666" stroke="#263238" stroke-linecap="round" stroke-linejoin="round"/>
<path d="M187.183 221.434H118.507" stroke="#263238" stroke-linecap="round" stroke-linejoin="round"/>
<path d="M159.055 168.856L162.157 172.156C168.827 172.474 175.395 173.916 181.584 176.422C191.28 180.496 203.7 185.35 204.474 190.972C205.248 196.594 194.97 228.22 193.224 235.984C191.478 243.748 191.28 246.46 191.28 246.46C191.28 246.46 193.026 248.008 192.642 249.37C192.258 250.732 190.116 257.32 190.116 257.32C187.055 258.028 183.94 258.483 180.804 258.682C177.618 258.738 174.434 258.476 171.3 257.902C171.3 257.902 170.718 251.308 171.3 249.754C171.882 248.2 174.018 246.46 174.21 245.296C174.402 244.132 175.182 225.7 175.182 218.524C175.182 211.348 179.256 199.9 179.256 199.9C179.256 199.9 160.05 199.12 154.422 198.538C148.794 197.956 135.216 184.96 134.826 178.558C134.436 172.156 149.743 165.172 159.055 168.856Z" fill="#263238" stroke="#263238" stroke-linecap="round" stroke-linejoin="round"/>
<path d="M190.314 254.992C190.314 254.992 188.568 251.698 186.432 253.246C184.296 254.794 183.912 256.936 182.748 256.936C181.584 256.936 171.3 254.992 171.3 254.992C171.3 254.992 168.582 265.666 169.554 266.83C170.526 267.994 179.448 268.96 183.33 269.542C187.212 270.124 195.744 272.26 201.372 272.26C207 272.26 206.028 268.186 204.666 266.83C203.304 265.474 193.608 260.23 192.252 258.484C191.432 257.425 190.778 256.248 190.314 254.992V254.992Z" fill="white" stroke="#263238" stroke-linecap="round" stroke-linejoin="round"/>
<path d="M205.667 269.776C203.354 270.265 200.995 270.513 198.631 270.515C193.585 270.515 189.511 268.577 183.109 267.413C178.075 266.493 171.835 264.98 169.409 264.375C169.275 265.591 169.281 266.528 169.531 266.831C170.503 267.995 179.425 268.961 183.307 269.543C187.189 270.125 195.721 272.261 201.349 272.261C204.375 272.261 205.493 271.08 205.667 269.776Z" fill="white" stroke="#263238" stroke-linecap="round" stroke-linejoin="round"/>
<path d="M119.089 114.539C119.089 114.539 107.449 119.003 103.183 121.913C98.9168 124.823 101.629 135.881 101.629 142.085C101.629 148.289 100.465 164.981 100.273 168.275C100.081 171.569 104.347 176.039 107.257 177.785C110.167 179.531 135.001 180.497 141.595 180.497C148.189 180.497 162.355 176.231 161.191 163.619C160.027 151.007 155.953 141.311 155.371 139.175C154.789 137.039 154.591 130.061 154.789 128.117C154.987 126.173 156.535 120.359 153.625 117.641C150.715 114.923 138.493 111.821 132.865 112.019C127.237 112.217 119.089 114.539 119.089 114.539Z" fill="#92E3A9" stroke="#263238" stroke-linecap="round" stroke-linejoin="round"/>
<path d="M120.614 127.325C120.897 128.12 121.308 128.863 121.83 129.525C123.465 131.563 125.213 133.506 127.068 135.345C131.299 139.582 137.957 142.405 137.957 142.405C137.957 142.405 140.175 130.713 140.576 125.469C140.978 120.225 138.155 115.994 133.517 114.411C128.878 112.828 120.416 114.609 119.205 117.839C118.321 120.242 119.822 125.096 120.614 127.325Z" fill="white" stroke="#263238" stroke-linecap="round" stroke-linejoin="round"/>
<path d="M121.248 110.948C120.843 110.967 120.447 111.07 120.084 111.25C119.212 111.692 118.539 112.447 118.198 113.363C117.186 115.784 116.383 118.409 116.383 118.409C116.964 121.423 117.773 124.388 118.804 127.279C119.817 130.025 120.571 132.86 121.056 135.747C121.056 135.747 128.314 130.299 129.722 129.095C131.05 128.091 132.469 127.212 133.959 126.47C133.959 126.47 138.795 128.891 141.013 130.299C143.23 131.708 145.046 132.924 145.046 132.924C144.793 128.932 143.978 124.996 142.625 121.232C140.408 115.179 139.401 113.363 138.19 112.158C136.98 110.954 127.702 107.52 121.248 110.948Z" fill="white" stroke="#263238" stroke-linecap="round" stroke-linejoin="round"/>
<path d="M137.934 82.0628C137.934 82.0628 139.366 80.2295 140.192 81.6787C140.65 82.4989 141.205 83.261 141.845 83.9485C141.845 83.9485 143.492 84.775 143.702 86.2183C143.844 87.1055 143.912 88.0029 143.905 88.9013C143.905 89.5183 145.762 89.9315 145.762 90.9674C145.762 92.0034 144.732 92.4108 144.528 93.4409C144.324 94.4711 145.209 95.3848 144.318 96.7409C143.428 98.0969 144.4 97.6022 143.428 98.1028C142.456 98.6033 141.432 99.2202 141.432 99.2202L136.683 83.5062L137.934 82.0628Z" fill="#C7C7C7" stroke="#7D7D7D" stroke-linecap="round" stroke-linejoin="round"/>
<path d="M122.336 74.9511C122.336 74.9511 116.842 76.5574 114.549 81.1377C112.256 85.7181 112.029 89.1577 113.176 93.0513C114.322 96.9449 118.67 107.939 120.049 111.146C121.429 114.352 121.882 120.312 124.63 123.95C127.377 127.587 134.023 130.823 134.023 130.823C134.023 130.823 139.057 123.95 139.977 120.516C140.896 117.082 139.057 110.209 139.057 110.209C139.057 110.209 144.097 104.022 143.411 98.0681C142.724 92.1142 139.057 84.3445 137.934 82.0631C136.811 79.7817 132.644 72.6638 122.336 74.9511Z" fill="white" stroke="#263238" stroke-linecap="round" stroke-linejoin="round"/>
<path d="M126.294 84.1293C126.294 84.1293 130.327 82.1156 132.946 82.7209" stroke="#263238" stroke-linecap="round" stroke-linejoin="round"/>
<path d="M124.676 83.3256C124.676 83.3256 128.308 81.5098 130.927 81.5098" stroke="#263238" stroke-linecap="round" stroke-linejoin="round"/>
<path d="M139.057 110.231C139.057 110.231 135.967 112.158 133.144 112.158C130.322 112.158 125.078 109.94 123.466 108.322C123.466 108.322 128.244 113.793 133.319 115.161C138.394 116.528 139.762 114.381 139.762 114.381L139.057 110.231Z" fill="#263238" stroke="#263238" stroke-linecap="round" stroke-linejoin="round"/>
<path d="M114.375 98.3586C114.53 98.2669 114.68 98.1658 114.823 98.0559C115.527 97.538 116.796 96.4089 116.644 95.0586C116.441 93.2021 116.644 92.1487 115.614 90.7228C114.584 89.2969 112.931 86.1831 112.931 86.1831C111.709 86.084 110.487 86.3732 109.439 87.0096C107.996 88.0397 108.403 88.8662 107.996 90.3095C107.588 91.7529 106.547 90.7227 105.93 92.7888C105.313 94.8549 106.133 96.0888 106.96 96.502C107.786 96.9152 107.169 98.1549 107.169 99.994C107.201 100.661 107.466 101.295 107.918 101.785C108.371 102.276 108.981 102.592 109.643 102.677C110.266 102.677 110.469 103.503 111.296 104.33C112.122 105.156 114.788 104.231 114.788 104.231C114.788 104.231 116.039 103.503 116.243 102.677C116.446 101.851 114.375 98.3586 114.375 98.3586Z" fill="#C7C7C7" stroke="#7D7D7D" stroke-linecap="round" stroke-linejoin="round"/>
<path d="M116.155 98.0901C116.155 98.0901 113.403 94.4235 111.569 96.4837C109.736 98.544 112.943 103.584 114.776 104.271C116.609 104.958 118.902 103.107 118.902 103.107" fill="white"/>
<path d="M116.155 98.0901C116.155 98.0901 113.403 94.4235 111.569 96.4837C109.736 98.544 112.943 103.584 114.776 104.271C116.609 104.958 118.902 103.107 118.902 103.107" stroke="#263238" stroke-linecap="round" stroke-linejoin="round"/>
<path d="M132.876 87.0918C132.876 87.0918 132.644 89.1579 133.103 89.8447C133.563 90.5314 136.31 91.678 135.85 93.7382C135.391 95.7985 132.644 97.6318 131.27 95.7985" stroke="#263238" stroke-linecap="round" stroke-linejoin="round"/>
<path d="M129.437 99.4634C130.771 99.8245 132.183 99.7773 133.49 99.3281C134.797 98.8789 135.94 98.0483 136.77 96.9434" stroke="#263238" stroke-linecap="round" stroke-linejoin="round"/>
<path d="M122.569 89.9886C122.504 89.9874 122.44 89.9777 122.377 89.9595C122.299 89.9374 122.227 89.8993 122.165 89.8478C122.103 89.7962 122.052 89.7323 122.016 89.66C121.98 89.5877 121.959 89.5087 121.955 89.428C121.951 89.3473 121.964 89.2667 121.993 89.1912C123.017 86.1183 126.911 85.5945 127.074 85.577C127.233 85.557 127.393 85.6009 127.52 85.6991C127.646 85.7973 127.729 85.9418 127.749 86.1008C127.769 86.2598 127.725 86.4203 127.627 86.5469C127.529 86.6735 127.384 86.7559 127.225 86.776C127.19 86.776 123.925 87.2241 123.151 89.5754C123.114 89.6991 123.036 89.8069 122.931 89.8817C122.826 89.9565 122.698 89.9941 122.569 89.9886Z" fill="#C7C7C7" stroke="#7D7D7D" stroke-linecap="round" stroke-linejoin="round"/>
<path d="M137.457 86.1772C137.378 86.1784 137.299 86.1636 137.226 86.1336C137.153 86.1036 137.087 86.059 137.032 86.0026C136.587 85.5693 136.021 85.2816 135.408 85.1777C134.796 85.0737 134.167 85.1585 133.604 85.4206C133.46 85.4924 133.294 85.5042 133.142 85.4534C132.99 85.4027 132.864 85.2935 132.792 85.15C132.72 85.0064 132.708 84.8402 132.759 84.688C132.81 84.5357 132.919 84.4099 133.063 84.3381C133.851 83.9598 134.737 83.834 135.599 83.9777C136.461 84.1215 137.259 84.5278 137.882 85.1412C137.941 85.1957 137.988 85.2619 138.02 85.3355C138.052 85.4091 138.069 85.4886 138.069 85.569C138.069 85.6494 138.052 85.7289 138.02 85.8025C137.988 85.8761 137.941 85.9423 137.882 85.9968C137.827 86.0542 137.761 86.0999 137.688 86.1309C137.615 86.1619 137.536 86.1777 137.457 86.1772Z" fill="#C7C7C7" stroke="#7D7D7D" stroke-linecap="round" stroke-linejoin="round"/>
<path d="M128.983 92.5918C128.847 93.4369 128.531 94.243 128.056 94.955C127.581 95.667 126.958 96.2684 126.23 96.7182" stroke="#263238" stroke-linecap="round" stroke-linejoin="round"/>
<path d="M136.083 91.4453C137.307 92.3053 138.721 92.8564 140.204 93.0516" stroke="#263238" stroke-linecap="round" stroke-linejoin="round"/>
<path d="M127.458 91.8458C127.662 92.5733 127.493 93.2543 127.08 93.3707C126.666 93.4871 126.178 92.9865 125.974 92.259C125.77 91.5315 125.939 90.8448 126.352 90.7342C126.765 90.6236 127.26 91.1183 127.458 91.8458Z" fill="#263238"/>
<path d="M136.59 89.2553C136.787 89.9828 136.619 90.6638 136.211 90.7802C135.804 90.8966 135.303 90.3961 135.105 89.6627C134.908 88.9294 135.071 88.2543 135.478 88.1379C135.885 88.0215 136.386 88.522 136.59 89.2553Z" fill="#263238"/>
<path d="M127.557 90.123L124.624 92.0786" stroke="#263238" stroke-linecap="round" stroke-linejoin="round"/>
<path d="M134.535 88.4522L137.748 88.3125" stroke="#263238" stroke-linecap="round" stroke-linejoin="round"/>
<path d="M196.506 170.771C196.506 170.771 200.813 172.703 201.605 173.262C202.396 173.82 204.573 177.219 204.753 178.279C204.934 179.338 204.718 179.774 204.055 179.39C203.392 179.006 201.512 176.754 200.057 175.217C198.602 173.681 196.745 172.715 196.291 171.801C195.837 170.887 195.785 170.596 196.506 170.771Z" fill="white" stroke="#263238" stroke-linecap="round" stroke-linejoin="round"/>
<path d="M183.603 166.161C183.603 166.161 190.698 168.489 193.189 169.228C195.053 169.806 196.767 170.785 198.212 172.097C198.922 172.767 202.839 177.207 203.263 178.499C203.688 179.791 204.276 183.248 203.549 183.568C202.821 183.889 202.076 183.039 201.75 182.306C201.378 181.617 200.937 180.968 200.435 180.367C200.435 180.367 201.314 183.167 201.162 184.575C201.011 185.984 200.58 186.839 199.416 187.037C198.252 187.235 196.949 185.291 196.047 183.487C195.498 182.395 194.792 181.389 193.951 180.501L191.169 179.209C191.648 180.61 192.276 181.954 193.043 183.219C194.109 184.808 195.371 185.181 194.912 186.048C194.452 186.915 192.333 187.084 191.338 185.879C190.343 184.674 188.743 183.371 187.846 181.753C186.95 180.135 184.872 175.764 184.872 175.764L179.192 174.774C179.192 174.774 175.869 173.773 175.653 170.27C175.438 166.766 182.067 165.247 183.603 166.161Z" fill="white" stroke="#263238" stroke-linecap="round" stroke-linejoin="round"/>
<path d="M195.214 177.539C195.214 177.539 197.758 180.839 198.596 182.271C199.434 183.702 199.422 187.049 199.422 187.049" stroke="#263238" stroke-linecap="round" stroke-linejoin="round"/>
<path d="M200.435 180.379L198.171 175.258" stroke="#263238" stroke-linecap="round" stroke-linejoin="round"/>
<path d="M126.294 178.168C126.294 178.168 139.29 176.62 145.884 178.948C152.478 181.276 158.886 189.424 158.886 196.21C158.886 202.997 157.524 240.25 157.914 241.222C158.304 242.194 160.434 242.386 160.434 244.324C160.434 246.262 158.886 256.354 158.886 256.354C158.886 256.354 149.766 259.648 146.664 259.648H143.556C143.556 259.648 139.098 247.816 139.29 245.878C139.482 243.94 140.646 242.386 140.646 241.414C140.646 240.442 135.024 220.072 135.024 214.06V200.674L124.158 198.346C124.158 198.346 119.31 184.57 126.294 178.168Z" fill="#263238" stroke="#263238" stroke-linecap="round" stroke-linejoin="round"/>
<path d="M166.813 265.084C166.813 265.084 160.993 258.292 158.665 254.608C156.337 250.924 152.071 248.788 149.551 250.726C147.031 252.664 147.025 257.518 147.025 257.518L142.759 256.738C142.759 256.738 144.313 261.976 145.087 264.886C145.861 267.796 147.025 269.74 152.071 270.514C157.117 271.288 165.457 271.87 167.785 269.542C170.113 267.214 166.813 265.084 166.813 265.084Z" fill="white" stroke="#263238" stroke-linecap="round" stroke-linejoin="round"/>
<path d="M167.785 269.542C168.159 269.238 168.424 268.82 168.54 268.352C168.657 267.884 168.618 267.391 168.431 266.947C167.346 267.562 166.222 268.106 165.067 268.576C160.801 270.322 154.981 269.932 150.133 268.378C148.34 267.864 146.693 266.939 145.32 265.678C146.117 268.151 147.502 269.81 152.071 270.514C157.14 271.288 165.457 271.87 167.785 269.542Z" fill="white" stroke="#263238" stroke-linecap="round" stroke-linejoin="round"/>
<path d="M174.437 167.291C174.437 167.291 174.053 171.895 173.925 173.297C173.797 174.7 174.565 176.37 175.089 176.62C175.613 176.871 175.857 176.37 175.857 175.218V173.297C175.84 172.913 174.437 167.291 174.437 167.291Z" fill="white" stroke="#263238" stroke-linecap="round" stroke-linejoin="round"/>
<path d="M182.085 157.844C182.085 155.842 184.75 151.623 184.75 151.623L185.78 137.48L185.082 134.739L181.974 134.518C180.746 138.638 176.433 153.142 175.863 155.4C175.2 158.468 174.755 161.58 174.53 164.712C174.53 165.818 174.53 170.927 174.978 172.93C175.427 174.932 178.529 176.922 178.529 176.922C178.529 176.922 182.719 176.922 183.382 176.48C184.046 176.037 182.364 174.559 182.364 174.559C182.114 174.559 181.375 169.077 182.946 167.377C184.215 166.021 187.835 167.598 187.835 167.598C187.835 167.598 186.944 165.154 185.833 162.942C184.721 160.731 182.085 159.84 182.085 157.844Z" fill="white" stroke="#263238" stroke-linecap="round" stroke-linejoin="round"/>
<path d="M182.748 176.875C182.748 176.875 179.425 175.088 179.041 174.32C178.657 173.552 178.534 167.674 178.534 167.674" stroke="#263238" stroke-linecap="round" stroke-linejoin="round"/>
<path d="M179.291 176.875C179.291 176.875 176.608 174.064 176.608 173.04C176.608 172.016 175.968 167.674 175.968 167.674" stroke="#263238" stroke-linecap="round" stroke-linejoin="round"/>
<path d="M115.725 179.838L93.5448 179.576C92.9734 179.529 92.3992 179.529 91.8279 179.576L88.0798 179.855C86.6043 179.967 85.167 180.378 83.8561 181.065C82.5452 181.751 81.3881 182.698 80.4559 183.847C79.5236 184.996 78.8357 186.323 78.4344 187.747C78.033 189.172 77.9267 190.663 78.1218 192.13L88.0158 266.41C88.085 266.937 88.3434 267.421 88.7429 267.771C89.1423 268.121 89.6555 268.314 90.1866 268.314H117.832L115.725 179.838Z" fill="#333333" stroke="#263238" stroke-linecap="round" stroke-linejoin="round"/>
<path d="M128.273 268.303C128.85 268.302 129.403 268.073 129.812 267.667C130.222 267.261 130.455 266.709 130.461 266.132L131.159 190.548C131.179 189.04 130.885 187.544 130.295 186.156C129.705 184.768 128.833 183.517 127.734 182.484C126.635 181.452 125.332 180.659 123.91 180.156C122.488 179.654 120.977 179.453 119.473 179.566L115.725 179.845C114.249 179.957 112.812 180.368 111.501 181.054C110.19 181.741 109.033 182.687 108.101 183.837C107.169 184.986 106.481 186.313 106.079 187.737C105.678 189.162 105.572 190.653 105.767 192.12L115.661 266.4C115.73 266.927 115.988 267.41 116.388 267.761C116.787 268.111 117.3 268.304 117.832 268.303H128.273Z" fill="#666666" stroke="#263238" stroke-linecap="round" stroke-linejoin="round"/>
<path d="M108.613 119.775C108.613 119.775 100.465 119.967 97.3627 124.623C94.2606 129.279 91.7347 145.191 91.1527 149.265C90.5707 153.339 88.0507 167.691 89.0226 170.409C89.9945 173.127 92.5146 173.511 97.1706 173.709C101.827 173.907 103.957 171.381 104.929 168.471C105.901 165.561 108.421 138.399 108.421 138.399" fill="#92E3A9"/>
<path d="M108.613 119.775C108.613 119.775 100.465 119.967 97.3627 124.623C94.2606 129.279 91.7347 145.191 91.1527 149.265C90.5707 153.339 88.0507 167.691 89.0226 170.409C89.9945 173.127 92.5146 173.511 97.1706 173.709C101.827 173.907 103.957 171.381 104.929 168.471C105.901 165.561 108.421 138.399 108.421 138.399" stroke="#263238" stroke-linecap="round" stroke-linejoin="round"/>
<path d="M97.5548 160.709C98.7188 161.099 109.195 163.619 109.975 165.755C110.221 166.3 110.298 166.906 110.194 167.495C110.09 168.084 109.811 168.627 109.393 169.055C109.393 169.055 105.901 177.395 102.793 178.169C99.6849 178.943 92.7067 176.813 89.2147 175.259C85.7227 173.705 89.2147 161.873 89.6046 161.291" fill="#92E3A9"/>
<path d="M97.5548 160.709C98.7188 161.099 109.195 163.619 109.975 165.755C110.221 166.3 110.298 166.906 110.194 167.495C110.09 168.084 109.811 168.627 109.393 169.055C109.393 169.055 105.901 177.395 102.793 178.169C99.6849 178.943 92.7067 176.813 89.2147 175.259C85.7227 173.705 89.2147 161.873 89.6046 161.291" stroke="#263238" stroke-linecap="round" stroke-linejoin="round"/>
<path d="M111.744 171.383C111.744 171.383 112.518 170.219 111.546 169.637C110.574 169.055 109.026 167.309 107.28 167.309C105.534 167.309 102.432 168.857 101.652 172.157C100.872 175.457 101.46 177.785 102.816 178.169C104.172 178.553 107.088 179.333 108.444 179.333C109.8 179.333 110.772 176.423 110.964 175.841C111.156 175.259 111.744 171.383 111.744 171.383Z" fill="#92E3A9" stroke="#263238" stroke-linecap="round" stroke-linejoin="round"/>
<path d="M124.327 172.547C124.327 172.547 127.627 176.621 129.181 177.395C130.735 178.169 132.091 179.141 130.927 180.305C129.763 181.469 127.045 180.887 125.881 179.333C124.717 177.779 124.327 172.547 124.327 172.547Z" fill="white" stroke="#263238" stroke-linecap="round" stroke-linejoin="round"/>
<path d="M113.077 171.381C113.077 171.381 122.197 170.02 123.553 170.02C124.909 170.02 127.045 179.721 127.237 181.275C127.429 182.829 128.209 183.795 127.237 184.57C126.814 184.984 126.273 185.256 125.689 185.349C125.155 185.805 124.569 186.196 123.943 186.513C123.361 186.705 121.225 186.316 121.225 186.316C121.225 186.316 121.033 187.095 119.479 186.898C117.925 186.7 112.687 180.111 112.687 180.111C112.687 180.111 108.811 179.139 107.257 177.783C105.703 176.427 106.285 174.094 107.257 172.545C108.229 170.997 110.359 170.602 110.359 170.602L113.077 171.381Z" fill="white" stroke="#263238" stroke-linecap="round" stroke-linejoin="round"/>
<path d="M121.615 174.484L126.463 184.96" stroke="#263238" stroke-linecap="round" stroke-linejoin="round"/>
<path d="M117.925 176.23L123.943 186.514" stroke="#263238" stroke-linecap="round" stroke-linejoin="round"/>
<path d="M121.225 186.316L115.597 178.168" stroke="#263238" stroke-linecap="round" stroke-linejoin="round"/>
</svg>
